# Blender 4.5.2 LTS
# www.blender.org
mtllib Cube.mtl
o Cube
v 1.000000 -1.000000 1.000000
v 1.000000 -1.000000 -1.000000
v -1.000000 -1.000000 1.000000
v -1.000000 -1.000000 -1.000000
v 1.000000 1.000000 1.000000
v 1.000000 1.000000 -1.000000
v -1.000000 1.000000 1.000000
v -1.000000 1.000000 -1.000000
vn -0.0000 -0.0000 1.0000
vn -1.0000 -0.0000 -0.0000
vn -0.0000 1.0000 -0.0000
vn -0.0000 -0.0000 -1.0000
vn -0.0000 -1.0000 -0.0000
vn 1.0000 -0.0000 -0.0000
vt 0.250043 0.250043
vt 0.250043 0.000087
vt 0.500000 0.000087
vt 0.500000 0.250043
vt 0.749957 0.250043
vt 0.749957 0.000087
vt 0.500000 0.749957
vt 0.500000 0.999913
vt 0.250043 0.999913
vt 0.250043 0.749957
vt 0.250043 0.500000
vt 0.500000 0.500000
vt 0.000087 0.000087
vt 0.000087 0.250043
s 0
usemtl Material
f 1/1/1 5/2/1 7/3/1 3/4/1
f 4/5/2 3/4/2 7/3/2 8/6/2
f 8/7/3 7/8/3 5/9/3 6/10/3
f 6/10/4 2/11/4 4/12/4 8/7/4
f 2/11/5 1/1/5 3/4/5 4/12/5
f 6/13/6 5/2/6 1/1/6 2/14/6
